Coordinates
version=1
nRows=60
nColumns=12
inDegrees=yes

Units are S.I. units (second, meters, Newtons, ...)
Angles are in degrees

endheader
time	SC_y	SC_z	SC_x	AC_y	AC_z	AC_x	GH_y	GH_z	GH_yy	EL_x	PS_y
       0.0              -57.76         -1.987          15.33           60.8          -1.99          15.67          155.3          12.02         -148.8          84.14          151.2
     0.015              -57.76         -1.988          15.34           60.8         -1.992          15.67          155.3          12.02         -148.8          84.14          151.2
   0.02999              -57.76         -1.988          15.34           60.8         -1.995          15.67          155.3          12.03         -148.8          84.13          151.2
   0.04499              -57.76         -1.988          15.34           60.8         -1.997          15.66          155.3          12.03         -148.8          84.12          151.2
   0.05999              -57.75         -1.988          15.34          60.79           -2.0          15.66          155.3          12.04         -148.8          84.11          151.2
   0.07498              -57.75         -1.988          15.34          60.79         -2.003          15.65          155.2          12.04         -148.7           84.1          151.2
   0.08998              -57.74         -1.988          15.34          60.79         -2.006          15.64          155.2          12.05         -148.7           84.1          151.2
     0.105              -57.74         -1.989          15.34          60.78         -2.009          15.64          155.2          12.05         -148.7          84.09          151.2
      0.12              -57.74         -1.989          15.34          60.78         -2.012          15.63          155.2          12.06         -148.7          84.08          151.2
     0.135              -57.73         -1.989          15.34          60.77         -2.016          15.62          155.1          12.06         -148.7          84.06          151.2
      0.15              -57.73         -1.989          15.34          60.77          -2.02          15.62          155.1          12.07         -148.7          84.05          151.2
     0.165              -57.72         -1.989          15.34          60.76         -2.024          15.61          155.1          12.08         -148.6          84.04          151.2
      0.18              -57.72          -1.99          15.34          60.76         -2.029           15.6          155.0          12.08         -148.6          84.03          151.2
     0.195              -57.71          -1.99          15.34          60.75         -2.034          15.59          155.0          12.09         -148.6          84.01          151.2
    0.2099               -57.7          -1.99          15.34          60.75         -2.039          15.58          155.0           12.1         -148.6          83.99          151.2
    0.2249              -57.69         -1.991          15.34          60.74         -2.045          15.57          154.9          12.11         -148.5          83.98          151.2
    0.2399              -57.69         -1.991          15.34          60.73         -2.051          15.56          154.9          12.12         -148.5          83.96          151.2
    0.2549              -57.68         -1.991          15.34          60.72         -2.058          15.54          154.8          12.13         -148.5          83.94          151.2
    0.2699              -57.67         -1.992          15.34          60.72         -2.065          15.53          154.8          12.15         -148.4          83.91          151.2
    0.2849              -57.66         -1.992          15.34          60.71         -2.073          15.51          154.7          12.16         -148.4          83.89          151.1
    0.2999              -57.65         -1.993          15.34           60.7         -2.082           15.5          154.6          12.17         -148.3          83.86          151.1
    0.3149              -57.63         -1.993          15.34          60.68         -2.092          15.48          154.6          12.19         -148.3          83.83          151.1
    0.3299              -57.62         -1.994          15.34          60.67         -2.103          15.46          154.5          12.21         -148.2           83.8          151.1
    0.3449               -57.6         -1.995          15.34          60.66         -2.115          15.43          154.4          12.23         -148.2          83.76          151.1
    0.3599              -57.59         -1.996          15.34          60.64         -2.129          15.41          154.3          12.25         -148.1          83.72          151.1
    0.3749              -57.57         -1.996          15.34          60.63         -2.144          15.38          154.2          12.28         -148.0          83.67          151.1
    0.3899              -57.55         -1.997          15.35          60.61         -2.161          15.35          154.1          12.31         -148.0          83.62          151.1
    0.4049              -57.52         -1.999          15.35          60.58          -2.18          15.31          153.9          12.34         -147.9          83.56          151.1
    0.4199              -57.49           -2.0          15.35          60.56         -2.201          15.27          153.8          12.38         -147.8           83.5          151.1
    0.4349              -57.46         -2.001          15.35          60.53         -2.225          15.22          153.6          12.42         -147.6          83.42          151.1
    0.4499              -57.43         -2.003          15.35           60.5         -2.253          15.17          153.4          12.46         -147.5          83.34          151.1
    0.4649              -57.39         -2.005          15.35          60.46         -2.285          15.11          153.1          12.52         -147.3          83.24          151.1
    0.4799              -57.34         -2.007          15.36          60.42         -2.322          15.04          152.9          12.58         -147.2          83.13          151.1
    0.4949              -57.29         -2.009          15.36          60.37         -2.364          14.95          152.5          12.65         -146.9           83.0          151.1
    0.5099              -57.22         -2.012          15.36          60.31         -2.414          14.86          152.2          12.74         -146.7          82.84          151.1
    0.5249              -57.15         -2.016          15.37          60.24         -2.473          14.74          151.7          12.83         -146.4          82.66          151.0
    0.5399              -57.06          -2.02          15.37          60.16         -2.543          14.61          151.2          12.95         -146.1          82.45          151.0
    0.5549              -56.95         -2.025          15.38          60.07         -2.627          14.45          150.6          13.09         -145.7          82.19          151.0
    0.5699              -56.82         -2.031          15.38          59.95         -2.729          14.25          149.8          13.27         -145.2          81.88          151.0
    0.5849              -56.66         -2.038          15.39           59.8         -2.853          14.01          148.9          13.48         -144.5           81.5          150.9
    0.5999              -56.46         -2.047           15.4          59.63         -3.006          13.72          147.8          13.73         -143.8          81.03          150.9
    0.6148              -56.22         -2.058          15.41          59.41         -3.196          13.35          146.3          14.06         -142.8          80.44          150.9
    0.6298              -55.91         -2.072          15.43          59.13         -3.437          12.89          144.5          14.46         -141.7          79.71          150.8
    0.6448              -55.52          -2.09          15.45          58.77         -3.742           12.3          142.3          14.98         -140.1          78.77          150.7
    0.6598              -55.02         -2.112          15.47          58.32         -4.134          11.54          139.3          15.64         -138.2          77.57          150.6
    0.6748              -54.38         -2.142           15.5          57.74         -4.636          10.58          135.6          16.49         -135.7          76.03          150.5
    0.6898              -53.55         -2.179          15.55          56.99         -5.277          9.341          130.8          17.57         -132.6          74.06          150.3
    0.7048              -52.52         -2.226           15.6          56.06         -6.083          7.787          124.8          18.93         -128.6          71.59          150.1
    0.7198              -51.26         -2.283          15.66          54.92         -7.065          5.893          117.5          20.59         -123.7          68.58          149.9
    0.7348               -49.8          -2.35          15.73           53.6         -8.204          3.699          109.0          22.51         -118.1          65.08          149.6
    0.7498              -48.22         -2.421          15.81          52.17         -9.437          1.322          99.77           24.6         -112.0           61.3          149.2
    0.7648              -46.64         -2.493          15.89          50.74         -10.67         -1.054          90.56          26.68         -105.9          57.52          148.9
    0.7798              -45.19          -2.56          15.97          49.42         -11.81         -3.249          82.07           28.6         -100.3          54.02          148.6
    0.7948              -43.93         -2.617          16.03          48.28         -12.79         -5.142          74.74          30.26         -95.46          51.01          148.4
    0.8098              -42.89         -2.664          16.08          47.35          -13.6         -6.696          68.72          31.62         -91.48          48.54          148.2
    0.8248              -42.07         -2.701          16.12          46.61         -14.24         -7.931          63.94          32.71         -88.32          46.57          148.0
    0.8398              -41.43         -2.731          16.15          46.03         -14.74         -8.899          60.19          33.55         -85.84          45.03          147.9
    0.8548              -40.93         -2.753          16.18          45.57         -15.13         -9.653          57.27          34.21         -83.91          43.83          147.8
    0.8698              -40.54         -2.771           16.2          45.22         -15.44         -10.24          54.99          34.73          -82.4          42.89          147.7
    0.8848              -40.23         -2.785          16.21          44.94         -15.68          -10.7           53.2          35.14         -81.21          42.16          147.6
